# xmcd
#
# Track frame offsets:
#	150
#	14921
#	27221
#	42074
#	55311
#	70644
#	88440
#	106931
#	120866
#	140551
#	152686
#	163776
#	175716
#	188963
#
# Disc length: 2707 seconds
#
# Revision: 2
# Processed by: cddbd v1.5.2PL0 Copyright (c) Steve Scherf et al.
# Submitted via: EasyCDDAExtractor 15.3.0.1
#
DISCID=b80a910e
DTITLE=Auldridge and Bennett and Gaudreau - This Old  Town
DYEAR=1999
DGENRE=Bluegrass
TTITLE0=This Old Town
TTITLE1=Silence Or Tears
TTITLE2=Old Columbus Blues
TTITLE3=Love Remains
TTITLE4=We Live In Two Different Worlds
TTITLE5=Just A Closer Walk With Thee
TTITLE6=Billy Gray
TTITLE7=Come And Sit By The River
TTITLE8=Southern Son
TTITLE9=Glide Path
TTITLE10=Two Hearts
TTITLE11=You Didn't Say Goodbye
TTITLE12=Sally On The Treadmill
TTITLE13=Across The Great Divide
EXTD=
EXTT0=
EXTT1=
EXTT2=
EXTT3=
EXTT4=
EXTT5=
EXTT6=
EXTT7=
EXTT8=
EXTT9=
EXTT10=
EXTT11=
EXTT12=
EXTT13=
PLAYORDER=
